<svg xmlns="http://www.w3.org/2000/svg" viewBox="0 0 245.7 243.7"><title>Archimedean's Rose</title><desc>A Scalable Vector Graphic of a rose drawn with the Archimedean spirals equation</desc><path fill="none" stroke="#E4345A" stroke-width="2.7" d="M 122 120 L 122.67072056767037 119.88486623878956 L 123.28613030143286 119.54504828241963 L 123.7927890252876 118.99718783339277 L 124.14103430553664 118.26862825425734 L 124.28686067581613 117.3967916821228 L 124.19374811976648 116.42829196947409 L 123.83442963715594 115.41777933307824 L 123.1925907597903 114.42649720489253 L 122.2644861297984 113.5205102360255 L 121.06043475449569 112.76854012129004 L 119.6061135811218 112.23933132841978 L 117.94350972382227 111.99847271358549 L 116.13132158836224 112.10463498647945 L 114.24453137551441 112.60525800706687 L 112.37282572687748 113.53184088892708 L 110.61754243044747 114.89514785848583 L 109.08689536281257 116.68082711991694 L 107.88939876495562 118.84611685871867 L 107.12568421549236 121.31843548118589 L 106.87926594802808 123.99666556345775 L 107.20721912709854 126.7557859134714 L 108.13211425655807 129.45514206948732 L 109.63679221387287 131.95006564968003 L 111.66354691335198 134.10580479215278 L 114.11889745022476 135.8119271950892 L 116.88432074980956 136.99468802429953 L 119.83211434956563 137.62454855650154 L 122.84412996348794 137.71631959801897 L 125.82976417479816 137.32044732913369 L 128.73872595944204 136.50576403958252 L 131.5641655146183 135.3363680455268 L 134.33308923112304 133.8476878638808 L 137.0836859976262 132.02851447365353 L 139.83292819369225 129.81605800489078 L 142.54178649116164 127.10926138196844 L 145.0884021266271 123.80149192373294 L 147.26023111413176 119.82785661959461 L 148.7734283912586 115.216106618941 L 149.32129649561503 110.12545672525538 L 148.6444553100747 104.85689083686405 L 146.60586824260974 99.82330972129864 L 143.2473968826909 95.47836959253635 L 138.8046481850401 92.21705863251803 L 133.66570324664607 90.27474405581202 L 128.2762903035033 89.65903873929815 L 123.01490077804144 90.14534098001664 L 118.07888423113083 91.35016035679523 L 113.4282151115264 92.86919480883219 L 108.82122657701949 94.43796850055807 L 103.94600685903507 96.053827523738 L 98.6105284272754 98.00077406574906 L 92.91953506120933 100.74818477183656 L 87.35480739649026 104.7449038249438 L 82.70003404907379 110.18338866245578 L 79.810533864818 116.83926421793352 L 79.30195837006161 124.07812783585153 L 81.28759869535676 131.05834156224813 L 85.29739185383082 137.0651221780239 L 90.44747480975566 141.82900066293772 L 95.81400721584605 145.65839959841514 L 100.84911766251201 149.2803311582066 L 105.62500067886744 153.4218647873235 L 110.74996062297379 158.31766556310274 L 116.96048689737316 163.4097835326833 L 124.58498556190827 167.44876205479702 L 133.18771733658926 169.0106648946789 L 141.64628550474285 167.19965714317237 L 148.6879041236473 162.15219339748126 L 153.61636629719428 155.0157111565543 L 156.7826847321844 147.35183914435316 L 159.43589602423665 140.27525252789303 L 162.94051902431386 133.85732938942735 L 167.78073947323938 127.21768688255837 L 173.0001003255983 119.30485692111378 L 176.53913260717425 109.87090564723165 L 176.3778705392797 99.92657465952605 L 171.79910380393727 91.24644150722733 L 163.89845166678273 85.16327620229265 L 154.90226229530552 81.50046445892679 L 146.69361101308743 78.53890537055588 L 139.59914417487323 74.24128380173704 L 132.39465244918682 67.96488033513211 L 123.59383065010067 61.346413762644985 L 113.01080525091044 57.4935946268127 L 102.23136548298878 58.882722575316976 L 93.43242274629597 65.50430019664354 L 87.43528791839312 74.79872052483006 L 82.74855320807019 83.58253495538573 L 76.72043061336561 90.46588769222762 L 68.08869582423273 96.6988947606055 L 58.721393566836184 104.65120002095104 L 52.71007264499657 115.28356611875115 L 53.212386116745904 127.04332415354237 L 59.68238442066592 137.38363043641533 L 68.1401926637952 145.49028813751735 L 74.52527279772548 153.32511446957403 L 78.1779307541461 163.52844538195063 L 82.11938403500783 176.009106730114 L 89.79184664602366 186.88765342640545 L 101.53215026012842 191.51294043536643 L 114.464756924646 189.01008646256878 L 125.9017453214927 183.63227676118055 L 136.35083449428495 180.95010989156975 L 148.44520009852454 182.33310230471005 L 162.80136898922578 183.48234312592749 L 175.8713079096176 178.85216142776954 L 183.1021288484268 167.3781992759695 L 184.37758712247276 153.23589258255043 L 185.09783393555963 140.87886067416983 L 190.55528435096585 130.32998061630374 L 199.41381979337268 118.41712526172311 L 204.24360635900766 104.14504627454279 L 199.3925937110165 90.8299628029908 L 187.36354581059152 81.66338503674059 L 175.90537920755105 74.55518895465278 L 169.09655941684537 64.12495136374412 L 163.3487913552256 49.48588608974116 L 153.0991119574787 37.46631004720085 L 138.29939229900285 35.409188461795765 L 123.59424193133322 41.678343345197945 L 110.96041241204857 46.781019599583644 L 97.18248248857108 45.0222702234111 L 80.36882892605323 41.88332327320471 L 65.3123710049809 46.90566342974607 L 57.902934085679036 61.33849828186635 L 55.581341762100124 77.32002093287733 L 49.210930524766496 89.12667888288945 L 36.21012347601862 99.8089036741647 L 26.249223178790956 114.13766789830862 L 29.113745294019807 130.1509244050875 L 40.79320616465682 143.25041360471937 L 48.68161798745943 155.3130115754309 L 49.29351479260738 171.7798473737397 L 52.393107791246706 190.0893016105236 L 65.67015505521917 200.26277966312045 L 84.03057706337368 200.24670287556933 L 99.2954119834666 201.42131079895148 L 112.60425733109065 211.84540546703437 L 128.95882766729358 222.09493900288425 L 145.8650282866939 218.34909583513345 L 158.2443527393138 203.8366979878192 L 170.11977796149878 193.75896738664 L 188.25964878174415 191.40277665434755 L 206.6556800780669 184.72255686385876 L 212.88075699872013 167.63060763540278 L 209.95459589181513 148.44035381026077 L 213.92135209011656 133.21081254707792 L 226.4456379637062 117.15223487338268 L 229.90801725446732 98.43374713574318 L 216.78448624695227 83.53518637085386 L 202.53032822129836 72.02731595257808 L 198.48445397470033 54.6231203514964 L 193.66768941721355 33.788500604684984 L 177.02399747883211 24.68216500694399 L 156.23919833471908 27.221559394157154 L 140.04428526966683 22.79256325473625 L 123.50788882563492 8.621198382171713 L 103.95069250437074 5.584165059807276 L 88.20428824083683 20.18309685289981 L 74.46610523738315 32.253433736712054 L 53.68426844304685 33.14092212123896 L 33.38433644026 40.0019653538519 L 28.01208688444038 60.505330973232724 L 27.540268135666594 80.69245761404618 L 14.055186046570768 95.36974978296901 L 0.20341872403137984 113.37579901330312 L 6.9925697713785695 133.36210515562476 L 21.015651980098752 149.65900585901392 L 21.16058778544226 169.41762277270595 L 21.040903284759366 192.94272391484157 L 38.74197367740828 204.98560495268146 L 60.59052057274866 208.78118226674286 L 73.4354257027035 224.4747731139621 L 88.59810600017124 243.01710335791384 L 110.52343577646329 240.27644413510998 L 130.25432790315546 230.04303425583194 L 150.97079198376787 235.9368112466139 L 174.5972641748877 239.42164820493667 L 188.94138302050266 221.09686790265843 L 199.43181286778884 202.30998554333246 L 221.99062738457565 195.37259931969612 L 239.99535388016426 180.820027185816 L 236.7872385895013 156.2546186379006 L 237.98684767720442 135.86350915237887 L 226.4456379637062 117.15223487338268" stroke-dasharray="2149.443651289113" stroke-dashoffset="2149.443651289113"><animate attributeName="stroke-dashoffset" from="2149.443651289113" to="0" dur="4.5s" fill="freeze"></animate><animate attributeName="fill" from="transparent" to="#960018" dur="2s" begin="4s" fill="freeze"></animate></path></svg>