<svg xmlns="http://www.w3.org/2000/svg" viewBox="-129 -123 255 254">
	<style>
		path {
			transition: fill 750ms, stroke 750ms;
			stroke: #fbc4d0;
			fill: #f7f0f2;
		}
		@media (prefers-color-scheme: dark) {
			path {
				stroke: #960018;
				fill: #e4345a;
			}
		}
	</style>
	<g transform="matrix(1, 0, 0, -1, 0, 0)">
		<path fill="none" stroke="#FBC4D0" stroke-width="7" d="M 4 0 L 4.616127645984058 0.792389802441365 L 5.068831471784002 1.7930326201353237 L 5.307979863578929 2.9690647991607415 L 5.289470980112196 4.277390876554222 L 4.977077616575494 5.665570267224917 L 4.34422595843076 7.072966400444344 L 3.37570360211109 8.432167959833732 L 2.0692915953476274 9.670712602695525 L 0.43730057013528434 10.713168853623923 L -1.4920421444666303 11.483654761265122 L -3.6734607601167117 11.908882398303806 L -6.04393109940545 11.921803410476912 L -8.522666818717543 11.465880510500913 L -11.012115339633732 10.499913760970697 L -13.400324672165112 9.003205889975778 L -15.5650207896411 6.98066557465196 L -17.37962700115012 4.467243798369866 L -18.721241375902455 1.5309145547861138 L -19.480261332634214 -1.7266991030585084 L -19.570927430776223 -5.172926885604032 L -18.941606219900972 -8.650532822624722 L -17.58323598317645 -11.988272570018447 L -15.534140472130291 -15.01503506732372 L -12.879506734965762 -17.576223323387538 L -9.744335922807222 -19.55014913240968 L -6.2796597537572625 -20.861522623780914 L -2.6432113376581072 -21.48886707023337 L 1.022654335390968 -21.46312988254074 L 4.611529475790542 -20.85605007164372 L 8.066891016713974 -19.75895747301374 L 11.384512561937047 -18.255338053479665 L 14.600125454445951 -16.393133648661532 L 17.762265089453656 -14.164552533577556 L 20.89448686963973 -11.501279703877195 L 23.95554289767123 -8.29072077444573 L 26.80931715885686 -4.414138410325648 L 29.216829762599044 0.19910680220375532 L 30.859293266833564 5.5139583413069095 L 31.393808450180607 11.346442514179584 L 30.532986720270713 17.35311702194236 L 28.12926809207139 23.065860731443326 L 24.237749240373855 27.972797423735923 L 19.131755467697317 31.630322430030056 L 13.255479288721453 33.77614758316527 L 7.116994453345506 34.405109158359856 L 1.1481262033649153 33.77366246532543 L -4.423115885785311 32.317730034175135 L -9.63582603495948 30.49863271324132 L -14.757365062456477 28.62392564678924 L -20.138340935187184 26.71077703721702 L -26.002029736217853 24.456496382895132 L -32.247362492779416 21.34836102563409 L -38.357253540965765 16.889604236726615 L -43.4773847974059 10.860075274923457 L -46.666285330458294 3.496128568858632 L -47.23680106255088 -4.511628775842948 L -45.047867417919676 -12.235945033814811 L -40.60046788231705 -18.877458030703778 L -34.86018576714146 -24.11734127880021 L -28.853237134883887 -28.271904533735274 L -23.209620341300653 -32.130355547627865 L -17.8860074280261 -36.50587765662312 L -12.242081984791483 -41.69656545800657 L -5.473050155093537 -47.14422160591039 L 2.8069380254430993 -51.522815614293854 L 12.162850022021056 -53.2824836970045 L 21.39876222455457 -51.40993395639162 L 29.12005620468331 -45.99365447351519 L 34.521232523162745 -38.232904295095594 L 37.92067644892129 -29.81944178438405 L 40.639160441825574 -22.010138075661967 L 44.18446753938206 -14.955323849852917 L 49.17257879101476 -7.752436526914018 L 54.67930138854303 0.7452914342503911 L 58.54143366553542 10.872408063683357 L 58.54640800424008 21.61222825335018 L 53.80676877808881 31.067548513705372 L 45.37874365274878 37.730433847298386 L 35.61116004653377 41.669266069463816 L 26.595598417530507 44.65457166760719 L 18.816078061466612 48.922809394804794 L 11.053930742843093 55.33543442484211 L 1.6936759354163584 62.327931471139465 L -9.583335464282552 66.63776545928727 L -21.1828499822223 65.48950651573155 L -30.747386660140588 58.65391868158832 L -37.23362600700351 48.691495854007414 L -42.07019946354009 39.03270181364176 L -48.10051594435601 31.374106671203027 L -56.90864365084833 24.59659091934303 L -66.80394359131209 16.20390248444751 L -73.52886876213006 5.004970579675006 L -73.49400413332883 -7.525222423492641 L -66.87922781991153 -18.65610180181083 L -57.68141701988441 -27.298945405413615 L -50.36836752664623 -35.35631929635694 L -46.05655323218917 -45.74795750974091 L -41.83941376348823 -58.760080161792786 L -33.98101690113933 -70.56941317250728 L -21.777867660351827 -76.09003254358483 L -8.06349416355998 -73.84797329733797 L 4.163775448301475 -67.90563962190282 L 15.139110705516648 -64.29803517902363 L 27.62747771276464 -65.11980957886328 L 42.65205974976756 -66.36180988871482 L 56.79897020515619 -62.05051061788214 L 65.04854759125841 -50.43822708757189 L 66.60423255568567 -35.487924764029 L 66.75724965304376 -22.089749006600513 L 71.53529886604598 -10.779012262347047 L 80.48166424132111 1.6456027303922645 L 86.19284474499054 16.61628940409018 L 82.0672897825473 30.931976573281265 L 69.69480745621492 40.876959247741176 L 56.97505309866818 48.03269284867407 L 48.99772197314606 58.1305754011417 L 42.83401356033948 73.04693589418878 L 32.527518937503324 86.3245280634487 L 17.275324842789185 89.65571974895273 L 1.6968821875376006 83.36415036131147 L -11.600735891602884 76.94074141000559 L -25.665206578244053 77.53873539517927 L -43.07976829970336 80.83482272827965 L -59.474875781442506 76.68827687650827 L -68.10185928397713 62.32668029976928 L -70.31714425763234 45.18510798917469 L -75.58521368373503 32.05929943310192 L -88.28514591973614 20.778371034343703 L -99.60952979668616 6.098583881485039 L -98.24345726504296 -10.73637763895855 L -86.1933381645859 -24.678117034905807 L -76.41009376620015 -36.80210135002798 L -74.62851763926984 -53.14867363024345 L -72.03146998513874 -72.53068288261954 L -59.385971932055654 -84.61736731097588 L -40.30333698281917 -85.17932740648605 L -23.664351931022193 -84.86313656202213 L -9.621869977688554 -94.05584854682621 L 7.187164906218431 -105.44493954818985 L 25.152921272523773 -103.65657375500668 L 38.428084345856256 -88.88788067829047 L 49.934702151897234 -76.54091983612828 L 67.67495145079953 -72.92793626860598 L 87.60038707645698 -66.97389978585701 L 96.05169748404272 -50.34069770833087 L 92.89121523474725 -30.036622877453787 L 94.5451447401257 -13.587900482291172 L 106.61738236510622 2.9069788773378855 L 112.43342004143317 22.470689654955773 L 100.51254450786597 38.668471476664664 L 84.13566994742733 50.12042047580553 L 77.90399409359624 66.59026483577289 L 73.61566461041703 88.5547849617479 L 57.964555395682524 100.4117508688282 L 36.16895381706358 98.00752636457543 L 18.505327358725562 99.69114386024826 L 1.5345605907152275 113.34888666731825 L -18.8274486726849 119.34852681746969 L -35.82507007331026 105.81068909655754 L -49.19688644128548 90.81641379537685 L -69.24399926828974 88.03931082941175 L -91.6330804200192 82.72201603762926 L -99.5478680406265 63.01413942573112 L -98.4384842636955 40.96322121855691 L -109.29725127726599 24.93884188039078 L -125.1904330730268 6.808783806569608 L -121.59334949981067 -14.127288289211428 L -105.59331365989658 -31.01265463331383 L -102.04393163772072 -50.007912671953044 L -103.46101003705387 -74.75035075214008 L -87.95710936239244 -89.78219253107312 L -64.21150839084989 -92.83214388462527 L -49.06810694333712 -105.55800013101629 L -34.23198916209971 -126.07429234170363 L -12.134432211275564 -127.17101821968433 L 8.599999145050795 -114.65136975684892 L 29.199105990712333 -116.85049002843344 L 54.09663339759659 -122.82595347922397 L 70.89945524215547 -107.07446631019447 L 80.0351597184711 -85.07734218536035 L 100.62245066199779 -75.84886558560159 L 122.27797230931618 -63.02747824827078 L 121.56775204198921 -38.39618883690341 L 118.41805937789704 -16.196025725056504 L 106.61738236510622 2.9069788773378855" stroke-dasharray="2280.804931640625" stroke-dashoffset="2280.804931640625">
			<animate attributeName="stroke-dashoffset" from="2280.804931640625" to="0" dur="2s" fill="freeze"></animate>
		</path>
	</g>
</svg>